<?xml version="1.0" encoding="UTF-8"?>
<svg version="1.1" xmlns="http://www.w3.org/2000/svg" width="128" height="128">
<path d="M0 0 C42.24 0 84.48 0 128 0 C128 42.24 128 84.48 128 128 C85.76 128 43.52 128 0 128 C0 85.76 0 43.52 0 0 Z " fill="#091320" transform="translate(0,0)"/>
<path d="M0 0 C42.24 0 84.48 0 128 0 C128 42.24 128 84.48 128 128 C85.76 128 43.52 128 0 128 C0 85.76 0 43.52 0 0 Z M9.82605934 16.9593153 C8.43977878 20.38396217 8.71430993 23.97914901 8.7253418 27.62060547 C8.72023087 28.48937317 8.71511993 29.35814087 8.70985413 30.25323486 C8.69595638 33.12462253 8.69691519 35.99577019 8.69921875 38.8671875 C8.69533162 40.86491993 8.69099692 42.86265154 8.68623352 44.86038208 C8.6787707 49.04838743 8.67906283 53.23630849 8.68432617 57.42431641 C8.69011766 62.78662252 8.67319778 68.14858288 8.6499815 73.51083183 C8.63523606 77.63727836 8.63437363 81.76364181 8.63749123 85.89011002 C8.63697832 87.86682952 8.63174628 89.84355371 8.62167931 91.82024765 C8.60931808 94.58726073 8.61610499 97.35360281 8.62768555 100.12060547 C8.62004181 100.9343161 8.61239807 101.74802673 8.60452271 102.58639526 C8.66442318 109.07439546 10.12095122 112.96871793 14.62304688 117.83555603 C18.50480975 120.81155469 22.29313113 120.69790809 27.03125 120.63110352 C27.91981689 120.63825882 28.80838379 120.64541412 29.72387695 120.65278625 C32.64978047 120.6696417 35.57414494 120.65028917 38.5 120.62890625 C40.53971483 120.62973524 42.57942959 120.63219575 44.61914062 120.63621521 C48.88952799 120.63907106 53.15939025 120.62439251 57.4296875 120.59692383 C62.89747406 120.56284173 68.36432183 120.56886146 73.83215332 120.5875864 C78.04272251 120.59816608 82.25307408 120.58920971 86.46362305 120.57420158 C88.47940423 120.56902644 90.4952082 120.56949345 92.51098633 120.57574654 C95.33073619 120.58121036 98.14915221 120.56078617 100.96875 120.53344727 C102.21265503 120.54323608 102.21265503 120.54323608 103.48168945 120.55322266 C108.76170815 120.46638386 111.87264195 119.58625215 116 116 C119.67621934 111.65848196 119.44447181 107.34178393 119.43579102 101.91455078 C119.45090477 100.55506821 119.45090477 100.55506821 119.46632385 99.16812134 C119.49478125 96.17705901 119.50067926 93.18650172 119.50390625 90.1953125 C119.51354874 88.11172275 119.52364132 86.02813505 119.53416443 83.94454956 C119.55212014 79.57838228 119.55768601 75.212393 119.5559082 70.84619141 C119.55560336 65.25835367 119.59656256 59.67165976 119.64822483 54.08409309 C119.68162253 49.78086125 119.68766474 45.47790491 119.68607903 41.17455673 C119.68961363 39.11489798 119.70285248 37.05523169 119.72607613 34.99570084 C119.75555927 32.1110709 119.74681631 29.22891019 119.72875977 26.34423828 C119.74561829 25.49829102 119.76247681 24.65234375 119.77984619 23.78076172 C119.69132674 18.20003354 118.33278497 15.34584377 114.48219204 11.30039787 C110.90820501 8.16476834 106.84918738 8.82209336 102.34692383 8.79125977 C101.45079376 8.78147598 100.5546637 8.7716922 99.63137817 8.76161194 C96.65661104 8.73162363 93.68188905 8.71026113 90.70703125 8.69140625 C89.69157415 8.68483442 88.67611706 8.6782626 87.62988853 8.67149162 C82.25319181 8.6388804 76.87651504 8.61443578 71.49975586 8.5949707 C67.05024339 8.5771655 62.6013656 8.54236004 58.15209961 8.49243164 C52.78104094 8.43222628 47.41057034 8.40149396 42.03919029 8.39179802 C39.99345755 8.38324132 37.94774059 8.36441796 35.9022007 8.3350544 C33.03412218 8.29610581 30.16832942 8.29510976 27.30004883 8.30297852 C26.45873917 8.28297791 25.6174295 8.26297729 24.75062561 8.24237061 C17.89835642 8.32652665 13.38442503 11.02037768 9.82605934 16.9593153 Z " fill="#F9F9F9" transform="translate(0,0)"/>
<path d="M0 0 C2.19018435 1.07849987 4.35508146 2.20906951 6.5 3.375 C13.1056939 6.8512619 19.62780502 8.71415204 27 10 C27.50342219 27.32145223 27.31931929 44.65264232 15.73828125 58.75390625 C10.71371392 64.04666085 4.94535139 69.42029806 -2 72 C-10.63438697 71.41896926 -18.35490724 63.30974004 -24.02734375 57.3671875 C-35.19747284 43.9630326 -34.4589817 26.44331368 -34 10 C-33.07960937 9.79246094 -32.15921875 9.58492187 -31.2109375 9.37109375 C-22.73082123 7.3071958 -15.6255366 4.5901926 -8.0234375 0.29296875 C-4.57272432 -1.18272384 -3.47712932 -1.2619488 0 0 Z " fill="#0C2E47" transform="translate(68,29)"/>
<path d="M0 0 C2.19018435 1.07849987 4.35508146 2.20906951 6.5 3.375 C13.1056939 6.8512619 19.62780502 8.71415204 27 10 C27.50342219 27.32145223 27.31931929 44.65264232 15.73828125 58.75390625 C10.71371392 64.04666085 4.94535139 69.42029806 -2 72 C-10.63438697 71.41896926 -18.35490724 63.30974004 -24.02734375 57.3671875 C-35.19747284 43.9630326 -34.4589817 26.44331368 -34 10 C-33.07960937 9.79246094 -32.15921875 9.58492187 -31.2109375 9.37109375 C-22.73082123 7.3071958 -15.6255366 4.5901926 -8.0234375 0.29296875 C-4.57272432 -1.18272384 -3.47712932 -1.2619488 0 0 Z M-11.9375 8.8125 C-17.52672278 11.42203779 -23.03142553 13.46406887 -29 15 C-29.46702411 29.6334221 -28.0260768 44.24886882 -18.25 55.875 C-14.41195568 59.85842479 -10.12438664 63.78456969 -5 66 C1.51316555 65.53947314 7.91881255 59.24127879 12.1328125 54.703125 C20.97636373 42.9882909 22.20972213 29.19119757 22 15 C21.18917969 14.76925781 20.37835938 14.53851563 19.54296875 14.30078125 C12.01581684 12.08382033 5.07383278 9.39543973 -2 6 C-2 9.63 -2 13.26 -2 17 C-1.34 17 -0.68 17 0 17 C0.125 19.875 0.125 19.875 0 23 C-0.66 23.66 -1.32 24.32 -2 25 C-1.69086722 28.95953047 -0.3107041 31.26683198 2.0625 34.375 C4.19268202 37.46504717 4.99241577 38.95449465 5.625 42.75 C4.85479606 46.75506047 4.1987942 48.42536076 1 51 C-3.2373627 51.66543421 -6.94306451 51.35231183 -11 50 C-12.09506492 46.71480525 -12.09960608 44.26336585 -12.0625 40.8125 C-12.05347656 39.72582031 -12.04445313 38.63914063 -12.03515625 37.51953125 C-12.02355469 36.68808594 -12.01195313 35.85664062 -12 35 C-10.68 37.31 -9.36 39.62 -8 42 C-8.66 42 -9.32 42 -10 42 C-9.42547254 45.93075644 -9.42547254 45.93075644 -7 49 C-2.33771115 49.4640446 -2.33771115 49.4640446 1.9375 47.875 C3.50166442 45.11470985 3.26369075 43.14545395 3 40 C1.61704663 36.90105324 1.61704663 36.90105324 -0.3125 33.9375 C-0.92738281 32.93589844 -1.54226562 31.93429688 -2.17578125 30.90234375 C-3.35088509 29.032746 -4.53146176 27.16657133 -5.71875 25.3046875 C-7.19261281 22.65353183 -7.25600166 20.98668609 -7 18 C-6.34 17.67 -5.68 17.34 -5 17 C-5 13.37 -5 9.74 -5 6 C-7.28234143 6 -9.9617687 7.86497892 -11.9375 8.8125 Z " fill="#35C9E2" transform="translate(68,29)"/>
<path d="M0 0 C1.7015625 0.680625 1.7015625 0.680625 3.4375 1.375 C4.489375 1.66375 5.54125 1.9525 6.625 2.25 C9.4375 3.375 9.4375 3.375 11.125 5.375 C14.35396441 8.16761787 17.45771527 8.18707043 21.6015625 8.8203125 C25.82079085 9.64556102 28.79725293 11.08299258 32.4375 13.375 C33.0859375 15.4453125 33.0859375 15.4453125 33.4375 17.375 C33.7675 17.705 34.0975 18.035 34.4375 18.375 C34.9759197 27.98737517 34.84629596 37.54383517 31.0390625 46.45703125 C30.21933214 48.6494317 30.21933214 48.6494317 30.75 52.1875 C30.99436333 58.41876504 26.24876837 62.89452899 22.4375 67.375 C21.72851562 68.20902344 21.01953125 69.04304688 20.2890625 69.90234375 C15.18033687 75.44448112 9.78062729 79.36156187 2.4375 81.375 C-0.51640071 81.46352384 -2.66274746 81.08626006 -5.5625 80.375 C-5.8925 79.385 -6.2225 78.395 -6.5625 77.375 C-8.2125 77.375 -9.8625 77.375 -11.5625 77.375 C-11.5625 76.715 -11.5625 76.055 -11.5625 75.375 C-12.44228516 75.24158203 -12.44228516 75.24158203 -13.33984375 75.10546875 C-18.52951814 73.39989914 -21.94040478 67.55483576 -24.375 62.9375 C-24.766875 62.091875 -25.15875 61.24625 -25.5625 60.375 C-26.2225 60.045 -26.8825 59.715 -27.5625 59.375 C-28.1875 56.3125 -28.1875 56.3125 -28.5625 53.375 C-29.2225 53.375 -29.8825 53.375 -30.5625 53.375 C-34.01635511 45.15951941 -35.70282379 37.23385848 -36.5625 28.375 C-36.64757812 27.50230469 -36.73265625 26.62960938 -36.8203125 25.73046875 C-37.1065332 20.13008365 -36.03372993 16.82529478 -32.5625 12.375 C-28.97982734 10.34707208 -26.21104166 9.44575 -22.125 9 C-16.83207066 8.07141591 -13.07253524 5.15631533 -8.74609375 2.0859375 C-5.43013258 -0.09503025 -3.96929407 -0.69636738 0 0 Z M-8.9375 8.1875 C-16.0387358 11.89729473 -22.61872425 14.06917385 -30.5625 15.375 C-31.21508155 32.58307337 -31.18704009 50.17210396 -19.37109375 63.92578125 C-14.28629691 69.29704552 -8.61201958 74.75660701 -1.5625 77.375 C6.60523271 76.83731227 14.22481355 69.33906026 19.62109375 63.6484375 C30.81817662 49.6340241 30.93241048 32.40358645 30.4375 15.375 C28.93123047 15.06369141 28.93123047 15.06369141 27.39453125 14.74609375 C18.72476179 12.83344101 11.68154232 10.34634773 4.01171875 5.765625 C-1.09457122 3.00714362 -4.31497358 5.70045057 -8.9375 8.1875 Z " fill="#0C2D42" transform="translate(64.5625,23.625)"/>
<path d="M0 0 C0 3.63 0 7.26 0 11 C-0.99 11.495 -0.99 11.495 -2 12 C-2.37551948 16.38106064 -1.32922321 18.34735452 1 22 C2.23979699 23.97252498 3.468599 25.95199459 4.6875 27.9375 C5.31011719 28.93652344 5.93273437 29.93554688 6.57421875 30.96484375 C8.13910092 34.29611347 8.36288943 36.36592161 8 40 C6.9375 41.875 6.9375 41.875 5 43 C-1.00306279 43.6431853 -1.00306279 43.6431853 -3.9375 41.75 C-5 40 -5 40 -5 36 C-4.34 36 -3.68 36 -3 36 C-4.32 33.69 -5.64 31.38 -7 29 C-7.03738281 29.67546875 -7.07476562 30.3509375 -7.11328125 31.046875 C-7.17902344 31.93890625 -7.24476562 32.8309375 -7.3125 33.75 C-7.37050781 34.63171875 -7.42851563 35.5134375 -7.48828125 36.421875 C-8.06684165 39.33675946 -9.18440566 40.700905 -11 43 C-10.59687706 46.06373431 -9.53150344 47.53944122 -7.21484375 49.546875 C-5.17661412 51.08602411 -3.10148024 52.54878912 -1 54 C0.33720996 54.99481018 1.67168687 55.99334117 3 57 C-3.75640411 56.05006621 -8.52593753 51.98704302 -12.80859375 46.81640625 C-17.04091627 40.72650577 -19.84740129 34.37663172 -21 27 C-21.66 27.66 -22.32 28.32 -23 29 C-24.03026944 22.30324864 -24.10152799 15.7685324 -24 9 C-23.01 8.68546875 -22.02 8.3709375 -21 8.046875 C-15.278744 6.2013319 -5.45875076 0 0 0 Z " fill="#0E3A53" transform="translate(63,35)"/>
<path d="M0 0 C2.19018435 1.07849987 4.35508146 2.20906951 6.5 3.375 C13.16263946 6.88122963 19.56642467 8.59588022 27 10 C27 14.62 27 19.24 27 24 C26.67 24 26.34 24 26 24 C26 20.04 26 16.08 26 12 C24.370625 11.7525 22.74125 11.505 21.0625 11.25 C14.01414524 9.96519079 8.21809335 7.3291285 2.0625 3.75 C-0.70154142 1.83462035 -0.70154142 1.83462035 -3 2 C-3.33 2.66 -3.66 3.32 -4 4 C-3.34 4.33 -2.68 4.66 -2 5 C-2.33 8.63 -2.66 12.26 -3 16 C-3.33 16 -3.66 16 -4 16 C-4 12.7 -4 9.4 -4 6 C-4.96679688 6.48210938 -5.93359375 6.96421875 -6.9296875 7.4609375 C-8.24449939 8.09956042 -9.55962056 8.73754689 -10.875 9.375 C-11.50664063 9.69210938 -12.13828125 10.00921875 -12.7890625 10.3359375 C-18.38611429 13.02252236 -22.52736877 13.70547375 -29 15 C-28.34 23.25 -27.68 31.5 -27 40 C-27.66 39.34 -28.32 38.68 -29 38 C-28.76218023 44.42113383 -26.95593831 48.32842934 -23.47265625 53.703125 C-22.15702421 55.75509221 -21.04422346 57.80057281 -20 60 C-28.61383721 53.99034613 -31.52911353 45.19816282 -33.5078125 35.16015625 C-34.68920672 26.87174309 -34.23294743 18.34549102 -34 10 C-33.07960937 9.79246094 -32.15921875 9.58492187 -31.2109375 9.37109375 C-22.73082123 7.3071958 -15.6255366 4.5901926 -8.0234375 0.29296875 C-4.57272432 -1.18272384 -3.47712932 -1.2619488 0 0 Z " fill="#3FD7E9" transform="translate(68,29)"/>
<path d="M0 0 C1.59328125 0.72316406 1.59328125 0.72316406 3.21875 1.4609375 C4.6456801 2.09930097 6.07277217 2.73730246 7.5 3.375 C8.19609375 3.69210938 8.8921875 4.00921875 9.609375 4.3359375 C14.34822654 6.44209374 18.93690078 7.87106571 24 9 C24 12.96 24 16.92 24 21 C23.34 19.68 22.68 18.36 22 17 C21.91363281 17.94359375 21.82726562 18.8871875 21.73828125 19.859375 C20.79567055 28.47258833 19.39327864 36.34761258 15 44 C14.01 44.66 13.02 45.32 12 46 C12.268125 45.34 12.53625 44.68 12.8125 44 C13.204375 43.01 13.59625 42.02 14 41 C14.495 39.845 14.99 38.69 15.5 37.5 C18.28849513 30.05457646 19.15434587 21.90725784 19 14 C18.67 14.99 18.34 15.98 18 17 C16.25505035 18.03404423 14.50575619 19.06340162 12.71484375 20.015625 C10.82325058 21.1014598 9.495138 22.42617053 8 24 C7.34 24 6.68 24 6 24 C6 24.66 6 25.32 6 26 C5.01 26.33 4.02 26.66 3 27 C-0.0720339 22.57627119 -0.0720339 22.57627119 0.25 20 C0.4975 19.34 0.745 18.68 1 18 C1.75572954 14.52747177 1.75572954 14.52747177 2 11 C1.34 11 0.68 11 0 11 C0 7.37 0 3.74 0 0 Z " fill="#135370" transform="translate(66,35)"/>
<path d="M0 0 C0.28875 0.639375 0.5775 1.27875 0.875 1.9375 C1.82823451 4.15206079 1.82823451 4.15206079 4 5 C4.78271753 6.83220395 5.50154168 8.69191741 6.1875 10.5625 C9.83719019 19.53243827 15.92925703 26.99277714 25 31 C31.60506367 30.61225335 38.18839674 23.58033476 42.9375 19.4375 C45.45503141 16.46223561 47.17737746 13.44273146 49 10 C49.33 10 49.66 10 50 10 C50.63961849 14.26412326 49.91879445 16.56109667 47.4375 19.9375 C46.31505811 21.3111177 45.16866791 22.66549008 44 24 C43.47019531 24.61230469 42.94039062 25.22460938 42.39453125 25.85546875 C38.06352511 30.51567251 33.08525064 34.9075952 27 37 C23.69447692 36.56991335 21.6109088 34.99387762 19 33 C18.2575 32.50628906 17.515 32.01257813 16.75 31.50390625 C8.95305939 26.0118045 2.83259152 18.16426669 0 9 C-0.21365324 5.97972012 -0.18494179 3.02071585 0 0 Z " fill="#0E6798" transform="translate(38,63)"/>
<path d="M0 0 C0 0.66 0 1.32 0 2 C1.3303125 1.9071875 1.3303125 1.9071875 2.6875 1.8125 C6 2 6 2 8.1875 3.375 C11.10821563 5.06252459 13.01491544 5.43332385 16.3125 5.9375 C21.59518406 6.80245909 25.45808462 8.1402755 30 11 C30.6484375 13.0703125 30.6484375 13.0703125 31 15 C31.495 15.495 31.495 15.495 32 16 C32.57204498 26.21268542 32.42508809 36.63923673 28 46 C27.01 46.33 26.02 46.66 25 47 C25.13277344 46.13761719 25.26554687 45.27523437 25.40234375 44.38671875 C26.91401391 33.93743668 27.56865924 23.54514646 28 13 C27.35554932 12.97470215 26.71109863 12.9494043 26.04711914 12.92333984 C17.24350526 12.49855074 9.49295221 9.26095605 2.0625 4.625 C-0.78104061 2.8095842 -0.78104061 2.8095842 -3.4375 3 C-7.08705017 4.4242147 -10.54549142 6.15702396 -14 8 C-14 7.01 -14 6.02 -14 5 C-11 3 -11 3 -8 3 C-8 2.34 -8 1.68 -8 1 C-5.07175348 0.02391783 -3.04386724 -0.08226668 0 0 Z " fill="#0E3850" transform="translate(67,26)"/>
<path d="M0 0 C1.8125 1.5625 1.8125 1.5625 3 3 C1.02 2.34 -0.96 1.68 -3 1 C-3.33 4.3 -3.66 7.6 -4 11 C-3.34 11 -2.68 11 -2 11 C-1.375 13.875 -1.375 13.875 -1 17 C-1.66 17.66 -2.32 18.32 -3 19 C-2.69086722 22.95953047 -1.3107041 25.26683198 1.0625 28.375 C3.14859782 31.41344683 3.9967327 32.98247538 4.6875 36.6875 C3.76052425 41.15383771 2.50521887 43.06706176 -1 46 C-5.60929885 47.1669111 -8.92840973 46.59046811 -13.0625 44.3125 C-16.09953829 39.12014422 -15.38698276 33.8735384 -15 28 C-12.35892646 30.46741391 -11.20358597 32.57440916 -10 36 C-10.66 36 -11.32 36 -12 36 C-10.91215032 39.24983135 -10.91215032 39.24983135 -9 42 C-5.54178598 42.25003964 -5.54178598 42.25003964 -2 42 C0.26940171 40.14200874 0.26940171 40.14200874 0.33203125 37.25390625 C-0.06358202 33.37689625 -1.25907763 31.23232885 -3.3125 27.9375 C-4.23482422 26.43509766 -4.23482422 26.43509766 -5.17578125 24.90234375 C-6.35088509 23.032746 -7.53146176 21.16657133 -8.71875 19.3046875 C-10.19261281 16.65353183 -10.25600166 14.98668609 -10 12 C-9.01 11.67 -8.02 11.34 -7 11 C-7 7.37 -7 3.74 -7 0 C-4.26634878 -1.36682561 -2.89333621 -0.84683011 0 0 Z " fill="#2A9FB8" transform="translate(70,35)"/>
<path d="M0 0 C1.30013322 4.3066913 1.73154907 6.60637859 -0.3984375 10.6640625 C-2.47322123 13.5753203 -4.66373502 16.29424336 -7 19 C-7.71027344 19.83402344 -8.42054687 20.66804688 -9.15234375 21.52734375 C-14.25505938 27.0729714 -19.65926378 30.98721749 -27 33 C-29.95390071 33.08852384 -32.10024746 32.71126006 -35 32 C-35.33 31.01 -35.66 30.02 -36 29 C-37.65 29 -39.3 29 -41 29 C-41 28.01 -41 27.02 -41 26 C-41.99 25.67 -42.98 25.34 -44 25 C-43.67 24.34 -43.34 23.68 -43 23 C-42.38253906 23.46792969 -41.76507813 23.93585938 -41.12890625 24.41796875 C-36.30577841 27.87263377 -36.30577841 27.87263377 -30.6484375 28.9765625 C-20.9957912 26.07735778 -12.82024047 17.94509016 -7 10 C-5.76422383 7.61645546 -4.72357074 5.2653119 -3.7890625 2.75 C-2.93282554 0.85101902 -2.2191093 0 0 0 Z " fill="#0A304B" transform="translate(94,72)"/>
<path d="M0 0 C0.90781219 -0.00058411 1.81562439 -0.00116821 2.75094604 -0.00177002 C5.74345497 0.00101067 8.73496059 0.03210218 11.72729492 0.06347656 C13.80522619 0.070939 15.88316452 0.07663192 17.96110535 0.08062744 C23.42421984 0.09588348 28.88690743 0.13516537 34.34985352 0.17944336 C39.92678045 0.22039651 45.50377651 0.23863857 51.08081055 0.25878906 C62.01914892 0.30165937 72.95717076 0.36991062 83.89526367 0.45410156 C80.0861838 2.99348815 77.07096627 2.69967888 72.66357422 2.63354492 C71.82421326 2.6290181 70.98485229 2.62449127 70.12005615 2.61982727 C68.29647929 2.60886474 66.47292543 2.59335692 64.64941978 2.57386589 C61.76168147 2.54373348 58.87414504 2.52690317 55.98628235 2.5138092 C47.77520554 2.47403511 39.56437179 2.40906065 31.35351562 2.33764648 C26.33154537 2.29488895 21.30965778 2.26681704 16.28754616 2.24734688 C14.37498714 2.23678899 12.46245097 2.22040202 10.54999352 2.19804192 C7.87159822 2.16678392 5.19368663 2.1540625 2.51513672 2.14526367 C1.72790726 2.13133575 0.9406778 2.11740784 0.1295929 2.10305786 C-4.66734062 2.11109903 -7.96912752 2.7596575 -12.10473633 5.45410156 C-14.00680482 8.50449377 -14.00680482 8.50449377 -15.10473633 11.45410156 C-15.76473633 11.45410156 -16.42473633 11.45410156 -17.10473633 11.45410156 C-17.10473633 40.82410156 -17.10473633 70.19410156 -17.10473633 100.45410156 C-17.43473633 100.45410156 -17.76473633 100.45410156 -18.10473633 100.45410156 C-18.19745766 88.82325186 -18.26851236 77.19249023 -18.31198502 65.56134605 C-18.33285081 60.16039338 -18.3611504 54.75969376 -18.40649414 49.35888672 C-18.44998731 44.14581442 -18.47388102 38.93298538 -18.4842453 33.71974564 C-18.49163039 31.73182979 -18.50605182 29.74392712 -18.52765656 27.75611496 C-18.55673651 24.96944259 -18.56069039 22.1837726 -18.55883789 19.39697266 C-18.57321899 18.57697784 -18.5876001 17.75698303 -18.60241699 16.91213989 C-18.55515257 10.33199687 -16.41862864 6.94375651 -11.92378235 2.10748291 C-7.91693809 -0.24254668 -4.5659024 -0.07710128 0 0 Z " fill="#40505D" transform="translate(27.104736328125,8.5458984375)"/>
<path d="M0 0 C0.33 0 0.66 0 1 0 C1.59559938 13.81459683 0.91004254 26.14130757 -7.8046875 37.62890625 C-11.92598994 42.08020622 -16.62669993 46.15229737 -22 49 C-28.21204608 48.9051596 -32.66338548 43.98857162 -37 40 C-42.57745 34.0672984 -47.21630414 26.21472578 -47.25 17.875 C-47.1675 16.92625 -47.085 15.9775 -47 15 C-46.01 15.495 -46.01 15.495 -45 16 C-44.51567645 17.62720901 -44.11287472 19.27897644 -43.75 20.9375 C-41.27711417 30.376089 -37.01860205 36.83439239 -29.24609375 42.72265625 C-26.67055955 44.18735135 -24.97154098 44.87316593 -22 45 C-12.98525681 40.63040832 -7.83902688 33.73687116 -4.046875 24.73828125 C-1.30492272 16.82156609 -0.81735269 8.28891784 0 0 Z " fill="#0A1E2F" transform="translate(88,46)"/>
<path d="M0 0 C2.19018435 1.07849987 4.35508146 2.20906951 6.5 3.375 C13.16263946 6.88122963 19.56642467 8.59588022 27 10 C27 14.62 27 19.24 27 24 C26.67 24 26.34 24 26 24 C26 20.04 26 16.08 26 12 C24.370625 11.7525 22.74125 11.505 21.0625 11.25 C14.01414524 9.96519079 8.21809335 7.3291285 2.0625 3.75 C-0.70154142 1.83462035 -0.70154142 1.83462035 -3 2 C-3.33 2.66 -3.66 3.32 -4 4 C-3.34 4.33 -2.68 4.66 -2 5 C-2.33 8.63 -2.66 12.26 -3 16 C-3.33 16 -3.66 16 -4 16 C-4 12.7 -4 9.4 -4 6 C-4.68707031 6.37253906 -5.37414062 6.74507812 -6.08203125 7.12890625 C-6.98308594 7.60199219 -7.88414063 8.07507812 -8.8125 8.5625 C-9.70582031 9.03816406 -10.59914063 9.51382813 -11.51953125 10.00390625 C-14 11 -14 11 -17 10 C-15.68 9.34 -14.36 8.68 -13 8 C-19.79357247 8.78995029 -26.34852015 10.42284499 -33 12 C-33 16.95 -33 21.9 -33 27 C-33.33 27 -33.66 27 -34 27 C-34 21.39 -34 15.78 -34 10 C-31.81375 9.484375 -29.6275 8.96875 -27.375 8.4375 C-20.31177683 6.67481401 -14.34376315 3.865647 -8.0234375 0.29296875 C-4.57272432 -1.18272384 -3.47712932 -1.2619488 0 0 Z " fill="#79E9EE" transform="translate(68,29)"/>
<path d="M0 0 C0.33 0 0.66 0 1 0 C1.02578125 1.258125 1.0515625 2.51625 1.078125 3.8125 C1.6186552 22.16710369 3.67685073 38.64192747 17.5078125 51.9140625 C21.37001332 55.14668827 25.5636235 57.63825468 30 60 C29.34 60.66 28.68 61.32 28 62 C24.7 60.02 21.4 58.04 18 56 C18.66 56.99 19.32 57.98 20 59 C14.62711368 58.18521065 12.11009907 54.13673372 9 50 C7.95707741 48.02204336 6.94017941 46.02880819 6 44 C5.34 43.67 4.68 43.34 4 43 C3.375 39.9375 3.375 39.9375 3 37 C2.34 37 1.68 37 1 37 C-0.68343366 24.45076723 -1.1154162 12.6162616 0 0 Z " fill="#144862" transform="translate(33,40)"/>
<path d="M0 0 C0.33 0.66 0.66 1.32 1 2 C0.154375 2.495 -0.69125 2.99 -1.5625 3.5 C-5.79883497 6.31420834 -8.77979214 10.1170375 -12 14 C-13.2065625 15.2684375 -13.2065625 15.2684375 -14.4375 16.5625 C-18.22748874 22.47488243 -15.31227812 30.5206268 -14 37 C-20.39103302 29.87498279 -20.45917819 17.11301294 -20 8 C-18.33710937 7.38511719 -18.33710937 7.38511719 -16.640625 6.7578125 C-15.17703971 6.21365899 -13.71350045 5.66938165 -12.25 5.125 C-11.52039062 4.85558594 -10.79078125 4.58617187 -10.0390625 4.30859375 C-6.59889584 3.02634981 -3.23520433 1.75382129 0 0 Z " fill="#1A7C9A" transform="translate(61,38)"/>
<path d="M0 0 C0 3.63 0 7.26 0 11 C-1.32 11 -2.64 11 -4 11 C-4.33 11.66 -4.66 12.32 -5 13 C-5.99 12.67 -6.98 12.34 -8 12 C-4.375 6.125 -4.375 6.125 -1 5 C-5.4415206 5 -8.87769191 7.02163481 -12.89453125 8.80859375 C-15.95551001 9.98293151 -18.75753328 10.57833392 -22 11 C-21.85691406 12.57201172 -21.85691406 12.57201172 -21.7109375 14.17578125 C-21.59837758 15.55464022 -21.48643036 16.93354929 -21.375 18.3125 C-21.31054688 19.00279297 -21.24609375 19.69308594 -21.1796875 20.40429688 C-20.88197153 24.2559972 -20.79236277 25.68854416 -23 29 C-24.03026944 22.30324864 -24.10152799 15.7685324 -24 9 C-23.01 8.68546875 -22.02 8.3709375 -21 8.046875 C-15.278744 6.2013319 -5.45875076 0 0 0 Z " fill="#154F69" transform="translate(63,35)"/>
<path d="M0 0 C0.66 0 1.32 0 2 0 C-0.45803498 7.66573619 -7.2458927 13.58519584 -13.890625 17.859375 C-19.69849297 20.74708589 -23.69017186 21.54769369 -30 20 C-30.33 19.01 -30.66 18.02 -31 17 C-32.65 17 -34.3 17 -36 17 C-36 16.01 -36 15.02 -36 14 C-36.99 13.67 -37.98 13.34 -39 13 C-38.67 12.34 -38.34 11.68 -38 11 C-37.33613281 11.42152344 -36.67226563 11.84304687 -35.98828125 12.27734375 C-35.10527344 12.82519531 -34.22226562 13.37304688 -33.3125 13.9375 C-32.44238281 14.48277344 -31.57226562 15.02804688 -30.67578125 15.58984375 C-28.00512808 16.99729746 -26.0015264 17.74529476 -23 18 C-20.03201925 16.24407254 -20.03201925 16.24407254 -17 14 C-15.88625 13.566875 -14.7725 13.13375 -13.625 12.6875 C-7.76393591 9.95907362 -2.61608143 6.04221854 0 0 Z " fill="#0A263C" transform="translate(89,84)"/>
<path d="M0 0 C0.66 0.33 1.32 0.66 2 1 C1.67 1.66 1.34 2.32 1 3 C0.89968704 5.96808354 0.85966096 8.90718071 0.875 11.875 C0.8757251 13.15697266 0.8757251 13.15697266 0.87646484 14.46484375 C0.90823714 20.27588773 1.23900375 25.98065158 1.9765625 31.75 C2 34 2 34 0 37 C-3.42891374 22.85303514 -3.42891374 22.85303514 -4 16 C-4.06445312 15.26136719 -4.12890625 14.52273437 -4.1953125 13.76171875 C-4.48792625 7.95821267 -3.26453746 4.7947894 0 0 Z " fill="#0A2B40" transform="translate(32,36)"/>
<path d="M0 0 C0 0.66 0 1.32 0 2 C0.825 1.896875 1.65 1.79375 2.5 1.6875 C6.0188867 2.00168631 6.85846194 2.35741016 9.625 4.25 C14.65762385 7.68667504 20.20350005 9.27071085 26 11 C26 11.66 26 12.32 26 13 C17.28761564 12.49736244 9.43042993 9.24202159 2.0625 4.625 C-0.78104061 2.8095842 -0.78104061 2.8095842 -3.4375 3 C-7.08705017 4.4242147 -10.54549142 6.15702396 -14 8 C-14 7.01 -14 6.02 -14 5 C-11 3 -11 3 -8 3 C-8 2.34 -8 1.68 -8 1 C-5.07175348 0.02391783 -3.04386724 -0.08226668 0 0 Z " fill="#10435D" transform="translate(67,26)"/>
<path d="M0 0 C1.8125 1.5625 1.8125 1.5625 3 3 C1.02 2.34 -0.96 1.68 -3 1 C-3.33 4.3 -3.66 7.6 -4 11 C-3.34 11 -2.68 11 -2 11 C-1.375 13.875 -1.375 13.875 -1 17 C-1.66 17.66 -2.32 18.32 -3 19 C-3.16687448 21.58354218 -3.16687448 21.58354218 -3 24 C-3.99 24 -4.98 24 -6 24 C-6.474375 23.030625 -6.94875 22.06125 -7.4375 21.0625 C-8.70193947 18.19522563 -8.70193947 18.19522563 -10 17 C-10.04063832 15.33382885 -10.042721 13.66611905 -10 12 C-9.01 11.67 -8.02 11.34 -7 11 C-7 7.37 -7 3.74 -7 0 C-4.26634878 -1.36682561 -2.89333621 -0.84683011 0 0 Z " fill="#4FADB9" transform="translate(70,35)"/>
<path d="M0 0 C0.33 0 0.66 0 1 0 C1.22635081 12.24809359 1.2911322 23.35264116 -3 35 C-3.66 34.34 -4.32 33.68 -5 33 C-7.97 37.455 -7.97 37.455 -11 42 C-11 38.59003282 -10.23278058 37.2724891 -8.625 34.3125 C-6.93157184 31.05443962 -5.6184188 28.08404538 -4.8125 24.5 C-4 21 -4 21 -2 19 C-1.64792064 17.08321729 -1.64792064 17.08321729 -1.62109375 14.90234375 C-1.58693359 14.10119141 -1.55277344 13.30003906 -1.51757812 12.47460938 C-1.49115234 11.63736328 -1.46472656 10.80011719 -1.4375 9.9375 C-1.11993243 1.11993243 -1.11993243 1.11993243 0 0 Z " fill="#1BA3C8" transform="translate(92,42)"/>
<path d="M0 0 C0.33 0 0.66 0 1 0 C1.63961849 4.26412326 0.91879445 6.56109667 -1.5625 9.9375 C-6.8616752 16.4404691 -12.40329769 22.21038069 -20 26 C-20.66 26 -21.32 26 -22 26 C-22 25.01 -22 24.02 -22 23 C-19.953125 21.3515625 -19.953125 21.3515625 -17.25 19.625 C-13.42174325 17.06206018 -10.68791586 14.78299269 -8 11 C-7.154375 10.195625 -6.30875 9.39125 -5.4375 8.5625 C-2.88219261 5.87615121 -1.49070284 3.37369591 0 0 Z " fill="#085489" transform="translate(87,73)"/>
<path d="M0 0 C0.99 0.845625 1.98 1.69125 3 2.5625 C3.639375 3.10777344 4.27875 3.65304688 4.9375 4.21484375 C6.30584056 5.39918397 7.66033791 6.59972095 9 7.81640625 C13.11549866 11.53803883 17.07503849 14.43491588 22 17 C21.34 17.66 20.68 18.32 20 19 C16.7 17.02 13.4 15.04 10 13 C10.99 14.485 10.99 14.485 12 16 C7.33318597 15.2907265 5.47371224 12.61825009 2.55078125 9.14453125 C0.68240164 6.56080226 -0.30137674 4.10499228 -1 1 C-0.67 0.67 -0.34 0.34 0 0 Z " fill="#0A2941" transform="translate(41,83)"/>
<path d="M0 0 C-3.75 3 -3.75 3 -6 3 C-6 3.66 -6 4.32 -6 5 C-7.43554025 5.50559908 -8.8735202 6.0042749 -10.3125 6.5 C-11.51326172 6.91765625 -11.51326172 6.91765625 -12.73828125 7.34375 C-15 8 -15 8 -18 8 C-18 13.28 -18 18.56 -18 24 C-18.33 24 -18.66 24 -19 24 C-19 18.39 -19 12.78 -19 7 C-17.35 6.67 -15.7 6.34 -14 6 C-14 5.34 -14 4.68 -14 4 C-14.66 3.67 -15.32 3.34 -16 3 C-5.62642369 -0.44419134 -5.62642369 -0.44419134 0 0 Z " fill="#4DE0EB" transform="translate(57,36)"/>
<path d="M0 0 C3.46791002 1.34241678 6.80127255 2.83305412 10.125 4.5 C11.39730469 5.13421875 11.39730469 5.13421875 12.6953125 5.78125 C15 7 15 7 18 9 C17.01 9.495 17.01 9.495 16 10 C16.99 10.66 17.98 11.32 19 12 C9.86090226 10.94548872 9.86090226 10.94548872 6.625 7.5625 C4.37821107 5.40212603 1.80564927 4.30930299 -1 3 C-0.67 2.01 -0.34 1.02 0 0 Z " fill="#37C1D9" transform="translate(65,30)"/>
<path d="M0 0 C1.134375 0.45375 2.26875 0.9075 3.4375 1.375 C4.571875 1.74625 5.70625 2.1175 6.875 2.5 C7.720625 2.78875 8.56625 3.0775 9.4375 3.375 C9.1075 4.035 8.7775 4.695 8.4375 5.375 C5.4675 4.88 5.4675 4.88 2.4375 4.375 C2.4375 3.715 2.4375 3.055 2.4375 2.375 C1.674375 2.54 0.91125 2.705 0.125 2.875 C-2.5625 3.375 -2.5625 3.375 -5.5625 3.375 C-5.5625 4.035 -5.5625 4.695 -5.5625 5.375 C-7.16506108 5.88012244 -8.76961792 6.37891627 -10.375 6.875 C-11.71498047 7.29265625 -11.71498047 7.29265625 -13.08203125 7.71875 C-15.5625 8.375 -15.5625 8.375 -18.5625 8.375 C-16.64260816 7.15823738 -14.71792201 5.95168095 -12.78125 4.76171875 C-11.40560288 3.9019393 -10.04693779 3.01345108 -8.71875 2.08203125 C-5.4205956 -0.11423975 -3.95763497 -0.69432192 0 0 Z " fill="#0C2F43" transform="translate(64.5625,23.625)"/>
<path d="M0 0 C0.33 0.66 0.66 1.32 1 2 C0.67 2.66 0.34 3.32 0 4 C0.66 4.33 1.32 4.66 2 5 C1.67 8.63 1.34 12.26 1 16 C0.67 16 0.34 16 0 16 C0 12.7 0 9.4 0 6 C-1.03060547 6.55880859 -1.03060547 6.55880859 -2.08203125 7.12890625 C-3.43361328 7.83853516 -3.43361328 7.83853516 -4.8125 8.5625 C-5.70582031 9.03816406 -6.59914063 9.51382813 -7.51953125 10.00390625 C-10 11 -10 11 -13 10 C-11.68 9.34 -10.36 8.68 -9 8 C-9.66 7.34 -10.32 6.68 -11 6 C-7.37 4.02 -3.74 2.04 0 0 Z " fill="#68F0F6" transform="translate(64,29)"/>
<path d="M0 0 C2.52929647 3.79394471 2.12520959 6.58332784 1.8125 10.9375 C1.76206543 11.69369629 1.71163086 12.44989258 1.65966797 13.22900391 C0.4142969 29.25594547 0.4142969 29.25594547 -3.6015625 33.8203125 C-4.29378906 34.40425781 -4.29378906 34.40425781 -5 35 C-4.88437394 33.60335892 -4.757008 32.20768801 -4.625 30.8125 C-4.55539063 30.03519531 -4.48578125 29.25789063 -4.4140625 28.45703125 C-4 26 -4 26 -3.01367188 23.6640625 C-1.99127006 20.97705657 -1.61231212 18.77191967 -1.3671875 15.91796875 C-1.24150391 14.52094727 -1.24150391 14.52094727 -1.11328125 13.09570312 C-1.03464844 12.13599609 -0.95601563 11.17628906 -0.875 10.1875 C-0.78863281 9.20845703 -0.70226562 8.22941406 -0.61328125 7.22070312 C-0.40198821 4.81431022 -0.19779237 2.40753388 0 0 Z " fill="#092336" transform="translate(99,43)"/>
<path d="M0 0 C0.28875 0.639375 0.5775 1.27875 0.875 1.9375 C1.82823451 4.15206079 1.82823451 4.15206079 4 5 C4.94773382 6.92418685 5.81119422 8.89045607 6.625 10.875 C7.07101563 11.94492188 7.51703125 13.01484375 7.9765625 14.1171875 C9 17 9 17 9 20 C7.68 18.35 6.36 16.7 5 15 C4.67 15.99 4.34 16.98 4 18 C0.67202085 11.71546794 -0.45164525 7.11341265 0 0 Z " fill="#1E94BB" transform="translate(38,63)"/>
<path d="M0 0 C0.33 0 0.66 0 1 0 C1.46909786 10.88046418 1.00272711 19.72514247 -3 30 C-3.66 29.67 -4.32 29.34 -5 29 C-4.80664062 28.33097656 -4.61328125 27.66195312 -4.4140625 26.97265625 C-1.99509317 18.05120995 -0.92346232 9.16943762 0 0 Z " fill="#0B2A3F" transform="translate(88,46)"/>
<path d="M0 0 C-0.33 0.66 -0.66 1.32 -1 2 C-4.0625 2.625 -4.0625 2.625 -7 3 C-6.85691406 4.57201172 -6.85691406 4.57201172 -6.7109375 6.17578125 C-6.59837758 7.55464022 -6.48643036 8.93354929 -6.375 10.3125 C-6.31054688 11.00279297 -6.24609375 11.69308594 -6.1796875 12.40429688 C-5.88197153 16.2559972 -5.79236277 17.68854416 -8 21 C-9.03026944 14.30324864 -9.10152799 7.7685324 -9 1 C-5.8035914 -0.06546953 -3.34252724 -0.07427838 0 0 Z " fill="#10384E" transform="translate(48,43)"/>
<path d="M0 0 C0.625 2.875 0.625 2.875 1 6 C0.34 6.66 -0.32 7.32 -1 8 C-1.16687448 10.58354218 -1.16687448 10.58354218 -1 13 C-1.99 13 -2.98 13 -4 13 C-7.07692308 7.58461538 -7.07692308 7.58461538 -6.6875 4.625 C-6.460625 4.08875 -6.23375 3.5525 -6 3 C-5.67 3.66 -5.34 4.32 -5 5 C-4.01 5.33 -3.02 5.66 -2 6 C-2 4.68 -2 3.36 -2 2 C-2.99 1.67 -3.98 1.34 -5 1 C-2 0 -2 0 0 0 Z " fill="#57DAE5" transform="translate(68,46)"/>
<path d="M0 0 C0.66 0.33 1.32 0.66 2 1 C0.54634731 2.17249353 -0.91307419 3.33783816 -2.375 4.5 C-3.59316406 5.47453125 -3.59316406 5.47453125 -4.8359375 6.46875 C-7 8 -7 8 -9 8 C-9.33 9.32 -9.66 10.64 -10 12 C-13.465 10.02 -13.465 10.02 -17 8 C-16.34 7.34 -15.68 6.68 -15 6 C-15.33 5.34 -15.66 4.68 -16 4 C-15.2575 4.350625 -14.515 4.70125 -13.75 5.0625 C-10.71930767 6.09569057 -9.93186222 6.02170956 -7 5 C-5.05591393 3.83404344 -5.05591393 3.83404344 -3.25 2.4375 C-2.63640625 1.98246094 -2.0228125 1.52742188 -1.390625 1.05859375 C-0.93171875 0.70925781 -0.4728125 0.35992187 0 0 Z " fill="#1573A8" transform="translate(74,88)"/>
<path d="M0 0 C0.99 0.495 0.99 0.495 2 1 C2.625 4.0625 2.625 4.0625 3 7 C3.33 7 3.66 7 4 7 C4.33 11.29 4.66 15.58 5 20 C3 18 3 18 1 15 C0.67 14.67 0.34 14.34 0 14 C-0.07271741 11.64686445 -0.08370868 9.29166332 -0.0625 6.9375 C-0.05347656 5.64714844 -0.04445312 4.35679688 -0.03515625 3.02734375 C-0.02355469 2.02832031 -0.01195312 1.02929688 0 0 Z " fill="#2BC0D9" transform="translate(36,49)"/>
<path d="M0 0 C0.33 0 0.66 0 1 0 C0.72417585 6.48186757 -1.76527863 11.09109414 -6 16 C-6.99 16.33 -7.98 16.66 -9 17 C-9.33 17.99 -9.66 18.98 -10 20 C-12.0625 21.1875 -12.0625 21.1875 -14 22 C-12.54034225 18.65181599 -10.65203392 16.4301257 -8.125 13.8125 C-4.24118606 9.5614891 -1.9380702 5.39344537 0 0 Z " fill="#0C4060" transform="translate(91,73)"/>
<path d="M0 0 C0.33 0 0.66 0 1 0 C1.66483194 4.43221293 0.78506449 6.77742264 -1.75 10.3125 C-3.44402876 12.55837146 -4.43746124 13.78534705 -7.078125 14.79296875 C-9 15 -9 15 -11 14 C-10.113125 13.360625 -9.22625 12.72125 -8.3125 12.0625 C-4.31752829 8.77922159 -2.25332978 4.57645297 0 0 Z " fill="#0F72A3" transform="translate(87,73)"/>
<path d="M0 0 C0.99 0.495 0.99 0.495 2 1 C2.74609375 3.29296875 2.74609375 3.29296875 3.4375 6.1875 C4.29995433 9.60193456 5.14084277 12.27665544 6.75 15.4375 C8.17721488 18.3632905 7.933457 19.02933616 7 22 C6.01836578 20.06374902 5.03977546 18.12595461 4.0625 16.1875 C3.51722656 15.10855469 2.97195312 14.02960938 2.41015625 12.91796875 C0.2039638 8.35280044 -0.09513975 5.04240652 0 0 Z " fill="#0A2336" transform="translate(41,61)"/>
<path d="M0 0 C4.01412413 1.33804138 4.87396244 3.33566363 6.9921875 6.85546875 C8.31340394 9.66689443 8.38221367 11.94229064 8 15 C7.01 15.33 6.02 15.66 5 16 C4.62875 14.2365625 4.62875 14.2365625 4.25 12.4375 C3.18103871 8.09193997 1.36422459 4.78275934 -1 1 C-0.67 0.67 -0.34 0.34 0 0 Z " fill="#47C2D1" transform="translate(66,59)"/>
<path d="M0 0 C5.82339966 0.7869459 11.35230234 2.41588968 17 4 C17 7.96 17 11.92 17 16 C16.67 16 16.34 16 16 16 C16 12.7 16 9.4 16 6 C14.89591797 5.83564453 14.89591797 5.83564453 13.76953125 5.66796875 C3.85437735 4.05691997 3.85437735 4.05691997 0 1 C0 0.67 0 0.34 0 0 Z " fill="#144359" transform="translate(73,40)"/>
<path d="M0 0 C0 0.66 0 1.32 0 2 C-1.65 2.33 -3.3 2.66 -5 3 C-4.938125 4.11375 -4.87625 5.2275 -4.8125 6.375 C-4.874375 7.57125 -4.93625 8.7675 -5 10 C-5.99 10.66 -6.98 11.32 -8 12 C-8 8.37 -8 4.74 -8 1 C-5.29120665 -0.35439668 -2.99066732 -0.06501451 0 0 Z " fill="#2DDEF0" transform="translate(43,40)"/>
<path d="M0 0 C7.10054603 0.25680094 12.09755529 0.93387143 18 5 C18 5.99 18 6.98 18 8 C16.68 7.67 15.36 7.34 14 7 C14 6.34 14 5.68 14 5 C13.15695313 4.80664062 12.31390625 4.61328125 11.4453125 4.4140625 C10.34960938 4.15367188 9.25390625 3.89328125 8.125 3.625 C7.03445312 3.36976562 5.94390625 3.11453125 4.8203125 2.8515625 C2 2 2 2 0 0 Z " fill="#0C2E43" transform="translate(79,32)"/>
<path d="M0 0 C0.33 0 0.66 0 1 0 C1.25 6.625 1.25 6.625 -1 10 C-1.33 9.34 -1.66 8.68 -2 8 C-3.98 10.97 -5.96 13.94 -8 17 C-8 13.51038791 -7.09620626 11.88519705 -5.5 8.8125 C-5.0359375 7.91144531 -4.571875 7.01039062 -4.09375 6.08203125 C-3.7328125 5.39496094 -3.371875 4.70789063 -3 4 C-2.34 4 -1.68 4 -1 4 C-0.67 2.68 -0.34 1.36 0 0 Z " fill="#279DC2" transform="translate(89,67)"/>
<path d="M0 0 C1 1 2 2 3 3 C4.2684375 4.2375 4.2684375 4.2375 5.5625 5.5 C8 8 8 8 10 11 C9.34 11 8.68 11 8 11 C7.34 11.66 6.68 12.32 6 13 C2.57546571 8.60957142 0.41778991 5.7097955 0 0 Z " fill="#117AA8" transform="translate(42,76)"/>
<path d="M0 0 C-2.77994451 1.85329634 -4.78256551 2.68563605 -7.9375 3.625 C-9.21947266 4.01558594 -9.21947266 4.01558594 -10.52734375 4.4140625 C-13 5 -13 5 -17 5 C-16.67 4.01 -16.34 3.02 -16 2 C-10.61972975 0.80911014 -5.54708616 -0.2919519 0 0 Z " fill="#0F425C" transform="translate(52,34)"/>
<path d="M0 0 C1.32 0.66 2.64 1.32 4 2 C-2.435 4.97 -2.435 4.97 -9 8 C-9 7.01 -9 6.02 -9 5 C-6 3 -6 3 -3 3 C-3 2.34 -3 1.68 -3 1 C-2.01 0.67 -1.02 0.34 0 0 Z " fill="#124862" transform="translate(62,26)"/>
<path d="M0 0 C2.01696222 3.02544334 2.25811096 3.61067382 2.1875 7 C2.18105469 7.680625 2.17460938 8.36125 2.16796875 9.0625 C2 11 2 11 1 14 C0.01 14.33 -0.98 14.66 -2 15 C-1.34 10.05 -0.68 5.1 0 0 Z " fill="#114662" transform="translate(94,58)"/>
<path d="M0 0 C0.66 0 1.32 0 2 0 C2.33 1.98 2.66 3.96 3 6 C1.68 6 0.36 6 -1 6 C-1.33 6.66 -1.66 7.32 -2 8 C-2.99 7.67 -3.98 7.34 -5 7 C-1.125 1.125 -1.125 1.125 0 0 Z " fill="#14617E" transform="translate(60,40)"/>
<path d="M0 0 C3.3 0.99 6.6 1.98 10 3 C9.01 4.32 8.02 5.64 7 7 C4.13302508 5.71480435 2.02392288 4.42870746 0 2 C0 1.34 0 0.68 0 0 Z " fill="#136182" transform="translate(76,44)"/>
<path d="M0 0 C-1.62116347 2.64505618 -2.55297262 3.83236473 -5.5 4.9375 C-8 5 -8 5 -9.65625 3.50390625 C-10.0996875 3.00761719 -10.543125 2.51132812 -11 2 C-9.54494642 1.47007308 -8.08581873 0.9513211 -6.625 0.4375 C-5.81289063 0.14746094 -5.00078125 -0.14257812 -4.1640625 -0.44140625 C-2 -1 -2 -1 0 0 Z " fill="#126686" transform="translate(56,44)"/>
<path d="M0 0 C0.58394531 0.21914062 1.16789062 0.43828125 1.76953125 0.6640625 C0.12984375 1.4684375 0.12984375 1.4684375 -1.54296875 2.2890625 C-5.27514719 4.38935725 -6.67307016 6.6331485 -8.23046875 10.6640625 C-8.89046875 10.6640625 -9.55046875 10.6640625 -10.23046875 10.6640625 C-10.14710897 7.8298301 -9.6165562 6.10704705 -7.74609375 3.9609375 C-2.93209205 -0.44161106 -2.93209205 -0.44161106 0 0 Z " fill="#122C3E" transform="translate(20.23046875,9.3359375)"/>
<path d="M0 0 C1.7936743 1.1217963 3.5848773 2.24754483 5.375 3.375 C6.37273438 4.00148438 7.37046875 4.62796875 8.3984375 5.2734375 C11 7 11 7 13 9 C12.01 9.495 12.01 9.495 11 10 C8.3984375 8.671875 8.3984375 8.671875 5.375 6.75 C4.37210938 6.12609375 3.36921875 5.5021875 2.3359375 4.859375 C1.56507812 4.24578125 0.79421875 3.6321875 0 3 C0 2.01 0 1.02 0 0 Z " fill="#0D4061" transform="translate(50,92)"/>
<path d="M0 0 C2.8290723 2.8290723 3.37611108 3.38144425 4 7 C3.34 7 2.68 7 2 7 C1.67 8.32 1.34 9.64 1 11 C0.67 11 0.34 11 0 11 C0 7.37 0 3.74 0 0 Z " fill="#48D3E0" transform="translate(55,63)"/>
<path d="M0 0 C0.33 0.66 0.66 1.32 1 2 C0.34 2 -0.32 2 -1 2 C0.39759905 5.54518884 0.39759905 5.54518884 2 9 C0.68 9.33 -0.64 9.66 -2 10 C-3.125 7.75 -3.125 7.75 -4 5 C-3.25 2.75 -3.25 2.75 -2 1 C-1.34 0.67 -0.68 0.34 0 0 Z " fill="#38A9BA" transform="translate(59,69)"/>
<path d="M0 0 C3.45925163 1.2491742 6.14693203 2.67527795 9 5 C5.05272412 5.17942163 2.4019487 5.09350689 -1 3 C-0.67 2.01 -0.34 1.02 0 0 Z " fill="#34D4E9" transform="translate(65,30)"/>
<path d="M0 0 C0.28875 0.639375 0.5775 1.27875 0.875 1.9375 C1.82823451 4.15206079 1.82823451 4.15206079 4 5 C3.38722388 7.96175123 2.74627478 9.38058783 1 12 C0.03929566 9.11788698 -0.10581883 7.30149956 -0.0625 4.3125 C-0.05347656 3.50425781 -0.04445312 2.69601563 -0.03515625 1.86328125 C-0.02355469 1.24839844 -0.01195312 0.63351563 0 0 Z " fill="#1FA4C8" transform="translate(38,63)"/>
<path d="M0 0 C0.99 0.66 1.98 1.32 3 2 C0.16569547 5.2542015 -1.68607774 6.5206753 -6 7 C-4.68 6.01 -3.36 5.02 -2 4 C-2.66 3.34 -3.32 2.68 -4 2 C-2.68 1.34 -1.36 0.68 0 0 Z " fill="#58EAF2" transform="translate(57,33)"/>
<path d="M0 0 C0.33 1.98 0.66 3.96 1 6 C0.01 6.66 -0.98 7.32 -2 8 C-2 6.02 -2 4.04 -2 2 C-2.99 1.67 -3.98 1.34 -5 1 C-2 0 -2 0 0 0 Z " fill="#5CCDD5" transform="translate(68,46)"/>
<path d="M0 0 C7.42857143 -0.14285714 7.42857143 -0.14285714 11 1 C11 1.66 11 2.32 11 3 C9.54077307 2.88590407 8.08259402 2.75834456 6.625 2.625 C5.40683594 2.52058594 5.40683594 2.52058594 4.1640625 2.4140625 C2 2 2 2 0 0 Z " fill="#1EA9CD" transform="translate(79,39)"/>
<path d="M0 0 C0.99 0.33 1.98 0.66 3 1 C-2.625 6 -2.625 6 -6 6 C-6 5.34 -6 4.68 -6 4 C-3.1875 1.8125 -3.1875 1.8125 0 0 Z " fill="#091524" transform="translate(72,87)"/>
<path d="M0 0 C1.14926266 0.95421808 2.29430541 1.91352045 3.4375 2.875 C4.07558594 3.40867187 4.71367188 3.94234375 5.37109375 4.4921875 C7 6 7 6 8 8 C4.21479387 7.45925627 2.40822445 5.92427254 0 3 C0 2.01 0 1.02 0 0 Z " fill="#0E4766" transform="translate(42,84)"/>
<path d="M0 0 C0.99 0 1.98 0 3 0 C4.35439668 2.70879335 4.06501451 5.00933268 4 8 C3.01 8.33 2.02 8.66 1 9 C0.67 6.03 0.34 3.06 0 0 Z " fill="#3DB4C5" transform="translate(70,66)"/>
<path d="M0 0 C4.455 1.98 4.455 1.98 9 4 C7.02 4.99 7.02 4.99 5 6 C3.2925002 4.71937515 1.62626404 3.38232443 0 2 C0 1.34 0 0.68 0 0 Z " fill="#18546D" transform="translate(66,35)"/>
<path d="M0 0 C2.88437779 1.29299694 4.87219421 2.65941363 7 5 C6.67 5.99 6.34 6.98 6 8 C1.125 3.375 1.125 3.375 0 0 Z " fill="#152F41" transform="translate(111,10)"/>
<path d="M0 0 C0.33 0 0.66 0 1 0 C1.75 2.75 1.75 2.75 2 6 C0.0625 8.375 0.0625 8.375 -2 10 C-2.66 9.34 -3.32 8.68 -4 8 C-2.68 7.34 -1.36 6.68 0 6 C0 4.02 0 2.04 0 0 Z " fill="#2EAAC2" transform="translate(72,69)"/>
<path d="M0 0 C0.99 0.495 0.99 0.495 2 1 C2.59355614 3.64860427 2.74209269 6.29197322 3 9 C2.01 9.495 2.01 9.495 1 10 C-0.1577506 6.52674819 -0.06866652 3.63932552 0 0 Z " fill="#0C2D42" transform="translate(41,61)"/>
<path d="M0 0 C-0.33 0.66 -0.66 1.32 -1 2 C-3.64860427 2.59355614 -6.29197322 2.74209269 -9 3 C-9 2.34 -9 1.68 -9 1 C-5.8035914 -0.06546953 -3.34252724 -0.07427838 0 0 Z " fill="#11425A" transform="translate(48,43)"/>
<path d="M0 0 C0.33 0 0.66 0 1 0 C1.25 6.625 1.25 6.625 -1 10 C-1.66 8.02 -2.32 6.04 -3 4 C-2.34 4 -1.68 4 -1 4 C-0.67 2.68 -0.34 1.36 0 0 Z " fill="#148DB9" transform="translate(89,67)"/>
<path d="M0 0 C-2.38573379 1.89213369 -4.07175348 3.02391783 -7 4 C-7.66 3.01 -8.32 2.02 -9 1 C-5.8035914 -0.06546953 -3.34252724 -0.07427838 0 0 Z " fill="#38E6F4" transform="translate(57,36)"/>
<path d="M0 0 C0 1.65 0 3.3 0 5 C-2.475 4.01 -2.475 4.01 -5 3 C-5 2.34 -5 1.68 -5 1 C-1.125 0 -1.125 0 0 0 Z " fill="#0C3F60" transform="translate(64,85)"/>
<path d="M0 0 C0.66 0.33 1.32 0.66 2 1 C1.67 1.99 1.34 2.98 1 4 C-1.31 4 -3.62 4 -6 4 C-3.94766315 1.7522025 -2.99332739 0.9977758 0 0 Z " fill="#0C3850" transform="translate(52,30)"/>
</svg>
